<svg width="115" height="115" viewBox="0 0 115 115" fill="none" xmlns="http://www.w3.org/2000/svg">
<path d="M3.08932 71.2177C18.1077 57.0442 44.5022 46.0231 62.7618 56.6052C70.3207 60.9906 75.3076 68.7927 74.563 78.2677C73.622 90.2252 61.4969 92.278 55.5505 82.8511C45.7851 67.3531 53.0683 41.3667 65.5867 28.5832C72.8229 21.1978 82.9286 17.5862 92.199 21.6017" stroke="#8F85F3" stroke-width="2" stroke-miterlimit="10" stroke-linecap="round" stroke-dasharray="4 4"/>
<path d="M2.74454 71.5913C3.99091 71.6203 5.46036 72.5771 6.26866 73.4175C4.3008 73.0835 2.20061 73.1617 0.264533 73.8847C1.15994 72.025 1.26978 69.9243 1.15723 67.9216C1.93163 68.9203 2.76406 70.2653 2.72899 71.5757L2.74454 71.5913Z" fill="#8F85F3"/>
</svg>
